<svg width="20" height="20" viewBox="0 0 20 20" fill="none" xmlns="http://www.w3.org/2000/svg">
<path fill-rule="evenodd" clip-rule="evenodd" d="M5.50018 8C5.50018 5.51472 7.5149 3.5 10.0002 3.5C12.4827 3.5 14.4957 5.51019 14.5002 7.99162V9.66584C14.5002 9.96302 14.6061 10.2505 14.7988 10.4767L16.3217 12.2635C16.7367 12.7504 16.3907 13.5 15.7509 13.5H4.24945C3.60968 13.5 3.26365 12.7504 3.67864 12.2635L5.20153 10.4767C5.3943 10.2505 5.50018 9.96302 5.50018 9.66584V8.00342C5.50018 8.00228 5.50018 8.00114 5.50018 8ZM4.01236 7.61463C4.21103 4.4805 6.81593 2 10.0002 2C13.1845 2 15.7894 4.48057 15.988 7.61476C15.996 7.65863 16.0002 7.70383 16.0002 7.75V7.99033C16.0002 7.99355 16.0002 7.99678 16.0002 8C16.0002 8.00114 16.0002 8.00228 16.0002 8.00342V9.57376L17.4633 11.2905C18.7083 12.7513 17.6702 15 15.7509 15H13.6752C13.3277 16.7117 11.8144 18 10.0002 18C8.18596 18 6.67264 16.7117 6.32519 15H4.24945C2.33014 15 1.29204 12.7513 2.53701 11.2905L4.00018 9.57376V7.75C4.00018 7.70378 4.00436 7.65854 4.01236 7.61463ZM10.0002 16.5C9.02051 16.5 8.18708 15.8739 7.8782 15H12.1221C11.8133 15.8739 10.9798 16.5 10.0002 16.5Z" fill="#2B2B2B"/>
</svg>
