<svg width="41" height="41" viewBox="0 0 41 41" fill="none" xmlns="http://www.w3.org/2000/svg">
<path fill-rule="evenodd" clip-rule="evenodd" d="M17.9476 15.4655C17.4036 15.9983 17.4036 16.8621 17.9476 17.3949C18.4915 17.9277 19.3734 17.9277 19.9174 17.3949L23.8895 13.5043L23.9098 13.4843C24.0059 13.3903 24.1291 13.2697 24.23 13.1534C24.3487 13.0164 24.5156 12.7986 24.6165 12.4943C24.7453 12.1062 24.7453 11.6883 24.6165 11.3002C24.5156 10.9959 24.3487 10.7781 24.23 10.6411C24.1291 10.5248 24.0059 10.4042 23.9098 10.3102L23.9098 10.3102L23.8895 10.2903L19.9174 6.3996C19.3734 5.8668 18.4915 5.8668 17.9476 6.3996C17.4036 6.93239 17.4036 7.79622 17.9476 8.32901L20.221 10.5559C18.2503 10.6718 16.3186 11.2267 14.5788 12.1948C11.9484 13.6584 9.92152 15.9747 8.84727 18.7447C7.77301 21.5148 7.71866 24.565 8.69356 27.3701C9.66846 30.1751 11.6116 32.5593 14.1882 34.1119C16.7648 35.6646 19.8135 36.2884 22.8092 35.8761C25.805 35.4637 28.56 34.0408 30.5999 31.8527C32.6398 29.6646 33.8367 26.8481 33.9845 23.8885C34.1265 21.0439 33.2908 18.2383 31.6166 15.9178C31.1726 15.3025 30.3035 15.1561 29.6753 15.591C29.047 16.0259 28.8977 16.8772 29.3416 17.4925C30.657 19.3157 31.3137 21.5202 31.2021 23.7552C31.086 26.0806 30.1455 28.2935 28.5428 30.0128C26.94 31.7321 24.7753 32.85 22.4215 33.174C20.0678 33.498 17.6723 33.0078 15.6479 31.7879C13.6234 30.568 12.0967 28.6947 11.3307 26.4907C10.5647 24.2868 10.6074 21.8901 11.4514 19.7137C12.2955 17.5373 13.888 15.7173 15.9547 14.5673C17.2555 13.8435 18.6929 13.4136 20.1633 13.2952L17.9476 15.4655Z" fill="white"/>
</svg>
